<?xml version="1.0" standalone="no"?>
<!DOCTYPE svg PUBLIC "-//W3C//DTD SVG 20010904//EN"
 "http://www.w3.org/TR/2001/REC-SVG-20010904/DTD/svg10.dtd">
<svg version="1.0" xmlns="http://www.w3.org/2000/svg"
 width="254.000000pt" height="212.000000pt" viewBox="0 0 254.000000 212.000000"
 preserveAspectRatio="xMidYMid meet">

<g transform="translate(0.000000,212.000000) scale(0.100000,-0.100000)"
fill="#000000" stroke="none">
<path d="M1177 2048 c-26 -18 -47 -39 -47 -45 0 -7 -5 -13 -11 -13 -5 0 -7 5
-3 12 8 12 -96 -44 -133 -72 -12 -10 -19 -21 -15 -25 4 -5 1 -5 -5 -1 -7 4
-21 2 -32 -3 -16 -9 -19 -23 -20 -103 0 -51 3 -130 7 -175 5 -55 4 -84 -3 -87
-20 -7 21 -35 158 -105 76 -39 149 -78 162 -87 23 -15 26 -14 79 24 31 21 52
43 48 47 -4 5 -2 5 5 1 12 -7 167 88 192 117 8 11 11 29 7 49 -3 18 -6 97 -7
175 -1 108 -5 145 -15 154 -10 8 -14 8 -14 0 0 -6 5 -11 12 -11 6 0 9 -3 5 -6
-7 -8 -39 10 -38 22 0 5 -19 19 -42 31 -23 13 -49 27 -57 33 -8 5 -50 27 -92
48 -61 30 -79 35 -83 24 -3 -8 -12 -12 -19 -9 -8 3 -17 -1 -19 -9 -3 -9 -4 -8
-3 3 1 10 9 17 17 15 9 -1 16 5 16 13 0 8 -1 15 -2 15 0 0 -22 -15 -48 -32z
m133 -38 c0 -5 -2 -10 -4 -10 -3 0 -8 5 -11 10 -3 6 -1 10 4 10 6 0 11 -4 11
-10z m35 -20 c-11 -5 -27 -9 -35 -9 -9 0 -8 4 5 9 11 5 27 9 35 9 9 0 8 -4 -5
-9z m-317 -77 c-6 -7 -12 -13 -13 -13 -2 0 -5 6 -8 13 -3 7 3 13 14 13 13 0
15 -3 7 -13z"/>
<path d="M1720 1390 c-123 -15 -244 -51 -352 -102 l-108 -51 -98 46 c-121 57
-170 73 -285 93 -105 19 -289 14 -372 -9 l-50 -13 -5 -103 c-3 -57 -3 -104 1
-106 3 -2 25 1 50 7 72 17 303 14 389 -6 131 -30 260 -84 352 -149 15 -10 27
-6 75 21 215 124 437 177 637 153 52 -6 99 -11 105 -11 7 0 11 36 11 104 l0
104 -52 12 c-71 15 -218 21 -298 10z"/>
<path d="M515 953 c-72 -15 -65 -2 -65 -123 l0 -110 123 7 c144 7 260 -7 372
-43 92 -30 218 -91 279 -134 l43 -31 58 36 c107 69 199 110 330 147 54 16 109
21 245 24 l175 4 3 104 c2 92 1 104 -15 111 -10 3 -75 9 -144 12 -219 10 -379
-33 -615 -167 l-41 -24 -34 27 c-40 30 -160 91 -221 112 -119 40 -213 55 -343
54 -71 -1 -139 -3 -150 -6z"/>
<path d="M530 512 c-84 -6 -80 0 -80 -120 l0 -107 155 3 c138 3 164 1 228 -18
155 -47 292 -131 327 -200 l20 -40 83 0 83 0 54 55 c155 157 366 235 598 220
l82 -6 0 100 c0 81 -3 100 -16 105 -25 10 -206 7 -288 -5 -153 -21 -300 -76
-439 -166 l-68 -43 -72 49 c-89 60 -131 81 -227 114 -136 47 -306 70 -440 59z"/>
</g>
</svg>
